<?xml version="1.0" standalone="no"?>
<!DOCTYPE svg PUBLIC "-//W3C//DTD SVG 20010904//EN"
 "http://www.w3.org/TR/2001/REC-SVG-20010904/DTD/svg10.dtd">
<svg version="1.0" xmlns="http://www.w3.org/2000/svg"
 width="512.000000pt" height="512.000000pt" viewBox="0 0 512.000000 512.000000"
 preserveAspectRatio="xMidYMid meet">
<metadata>
Created by potrace 1.14, written by Peter Selinger 2001-2017
</metadata>
<g transform="translate(0.000000,512.000000) scale(0.100000,-0.100000)"
fill="#000000" stroke="none">
<path d="M3020 5110 c-113 -21 -269 -136 -360 -266 -47 -67 -84 -159 -96 -239
-2 -11 -7 -42 -12 -70 -4 -27 -7 -81 -6 -120 2 -84 -1 -92 -35 -109 -43 -23
-110 -97 -138 -154 -28 -58 -42 -69 -89 -70 -17 0 -68 -8 -115 -17 -46 -9 -97
-19 -114 -22 -40 -7 -47 -9 -65 -16 -8 -4 -40 -13 -70 -21 -68 -17 -189 -63
-207 -77 -7 -6 -13 -9 -13 -5 0 8 -184 -86 -188 -96 -2 -4 -8 -8 -12 -8 -11 0
-95 -56 -135 -90 -33 -28 -122 -118 -145 -146 -38 -47 -106 -175 -114 -214 -1
-3 -4 -9 -7 -15 -3 -5 -12 -31 -19 -57 -16 -59 -33 -61 -85 -13 -45 41 -149
97 -225 120 -63 20 -264 29 -326 15 -21 -5 -54 -11 -72 -15 -60 -10 -262 -92
-262 -106 0 -4 -11 -10 -25 -13 -14 -4 -25 -11 -25 -17 0 -6 -4 -7 -10 -4 -5
3 -10 1 -10 -4 0 -6 -7 -11 -15 -11 -16 0 -16 -1 -19 -148 -1 -94 3 -115 20
-110 19 5 55 -24 67 -55 8 -18 19 -55 26 -84 14 -58 36 -83 77 -88 38 -4 60
11 152 104 83 83 131 112 196 115 73 5 171 -30 211 -74 20 -22 20 -22 0 -36
-11 -8 -37 -19 -59 -25 -44 -12 -189 -87 -194 -100 -2 -5 -10 -9 -18 -9 -8 0
-14 -4 -14 -9 0 -5 -9 -13 -20 -16 -41 -13 -240 -223 -240 -253 0 -6 -4 -12
-9 -14 -4 -1 -34 -46 -65 -98 -32 -52 -63 -104 -69 -115 -12 -20 -21 -32 -46
-61 -10 -11 -14 -48 -15 -123 -2 -129 1 -143 23 -132 9 4 44 9 78 10 75 3 77
-2 78 -132 0 -85 1 -90 28 -113 30 -26 66 -31 98 -14 41 23 169 171 169 198 0
5 4 12 8 14 5 2 25 34 46 71 89 163 98 178 155 247 120 144 205 220 249 220
23 0 47 -41 58 -95 5 -30 2 -38 -32 -67 -115 -100 -191 -216 -266 -403 -38
-93 -83 -249 -93 -320 -3 -23 -7 -50 -9 -60 -29 -154 -25 -369 9 -519 13 -61
47 -151 77 -205 139 -250 346 -400 556 -402 60 -1 81 1 132 13 32 8 115 50
146 73 64 49 50 133 -30 174 -23 12 -56 34 -72 48 -16 14 -36 30 -44 37 -25
18 -100 111 -100 123 0 6 -3 13 -7 15 -20 8 -73 156 -81 223 -8 61 -7 215 1
260 4 22 8 49 10 59 5 25 23 32 40 14 7 -7 39 -65 70 -128 60 -118 108 -211
189 -360 75 -140 148 -286 148 -298 0 -6 3 -12 8 -14 4 -2 22 -33 40 -71 113
-229 312 -441 452 -482 139 -40 277 -25 430 48 36 17 67 35 68 39 2 4 8 8 14
8 12 0 125 79 162 113 14 12 33 29 43 38 34 29 116 124 171 197 68 93 130 192
255 412 102 179 152 259 171 272 7 5 7 8 1 8 -6 0 -6 3 1 8 6 4 57 72 113 152
92 129 198 319 205 365 1 10 10 21 19 26 13 8 17 3 23 -27 10 -53 -3 -206 -21
-247 -4 -10 -5 -21 -1 -24 3 -3 2 -11 -2 -17 -5 -6 -17 -41 -26 -79 -10 -37
-22 -70 -27 -73 -5 -3 -9 -11 -9 -19 0 -7 -16 -49 -36 -92 -20 -43 -35 -80
-34 -82 1 -2 -2 -7 -7 -10 -4 -3 -19 -28 -33 -56 -13 -27 -27 -52 -30 -55 -3
-3 -18 -26 -33 -52 -15 -26 -33 -53 -40 -60 -7 -7 -23 -30 -36 -51 -13 -21
-30 -44 -38 -52 -8 -8 -12 -15 -9 -15 2 0 -13 -18 -35 -40 -21 -21 -39 -41
-39 -44 0 -2 -16 -21 -35 -40 -19 -20 -35 -44 -36 -54 -3 -45 5 -69 31 -96 26
-27 35 -30 87 -28 58 1 111 8 145 18 9 3 25 7 36 9 73 14 239 101 318 167 81
67 184 178 262 283 48 64 190 333 196 369 1 6 5 17 9 23 5 7 6 13 3 13 -3 0 1
15 9 34 13 31 23 70 30 121 2 11 4 20 5 20 13 0 19 325 7 400 -17 114 -54 265
-68 279 -5 6 -9 16 -9 24 0 8 -6 28 -14 45 -60 136 -92 203 -101 209 -5 4 -7
8 -2 8 4 0 0 11 -9 25 -9 14 -13 32 -10 41 5 14 10 14 39 -4 19 -11 44 -28 57
-38 46 -37 200 -193 200 -202 0 -6 4 -12 8 -14 4 -1 39 -48 77 -103 100 -144
143 -192 219 -244 51 -36 93 -39 125 -12 22 19 44 75 33 85 -6 6 -8 19 -15 95
-8 80 -7 81 91 84 31 1 59 5 62 9 4 4 5 54 5 112 -1 101 -2 105 -31 134 -41
41 -64 69 -114 138 -24 32 -49 64 -54 70 -6 6 -20 23 -31 38 -116 158 -344
306 -543 351 -49 11 -72 21 -72 31 0 18 44 61 71 69 11 4 19 10 19 14 0 4 6 8
13 9 6 0 32 7 57 15 102 32 175 2 320 -131 39 -37 66 -44 122 -33 15 3 46 70
51 111 8 72 15 91 39 112 18 15 32 18 63 14 99 -14 90 -22 91 74 0 83 -1 86
-30 112 -17 16 -36 28 -43 28 -6 0 -13 4 -15 9 -13 34 -366 162 -405 147 -7
-3 -13 -1 -13 4 0 10 -234 7 -270 -4 -14 -4 -41 -10 -60 -13 -19 -3 -38 -10
-42 -17 -4 -6 -8 -7 -8 -3 0 20 -150 -73 -209 -130 -81 -77 -94 -80 -105 -21
-2 15 -9 35 -15 46 -6 11 -8 22 -6 24 7 6 -40 131 -68 183 -27 50 -112 162
-146 193 -62 54 -240 154 -301 167 -8 2 -36 10 -61 19 -25 8 -63 18 -85 22
-66 10 -94 30 -94 66 0 29 -43 133 -60 143 -4 2 -3 28 2 57 23 123 54 153 151
146 90 -8 85 -4 265 -192 110 -115 285 -210 429 -233 228 -37 429 41 568 219
41 53 35 118 -14 141 -30 15 -42 14 -96 -1 -99 -28 -167 -32 -255 -15 -151 30
-290 138 -470 363 -58 73 -152 183 -185 216 -48 49 -149 113 -212 136 -60 21
-180 30 -243 18z"/>
</g>
</svg>
