{
  "accessors": [
    {
      "bufferView": 2,
      "componentType": 5126,
      "count": 454,
      "max": [
        0.4999997615814209,
        0.4999980926513672,
        0.4999999701976776
      ],
      "min": [
        -0.5,
        -0.5000033378601074,
        -0.5
      ],
      "type": "VEC3"
    },
    {
      "bufferView": 2,
      "byteOffset": 5448,
      "componentType": 5126,
      "count": 454,
      "max": [
        1.0,
        1.0,
        0.9999999403953552
      ],
      "min": [
        -1.0,
        -1.0,
        -0.9999999403953552
      ],
      "type": "VEC3"
    },
    {
      "bufferView": 1,
      "componentType": 5126,
      "count": 454,
      "max": [
        1.0,
        1.0
      ],
      "min": [
        0.0,
        -8.394828832081203e-09
      ],
      "type": "VEC2"
    },
    {
      "bufferView": 0,
      "componentType": 5125,
      "count": 1590,
      "type": "SCALAR"
    },
    {
      "bufferView": 2,
      "byteOffset": 10896,
      "componentType": 5126,
      "count": 24,
      "max": [
        0.5,
        0.4542912542819977,
        0.495164692401886
      ],
      "min": [
        -0.5,
        -0.40546944737434387,
        -0.49969226121902466
      ],
      "type": "VEC3"
    },
    {
      "bufferView": 2,
      "byteOffset": 11184,
      "componentType": 5126,
      "count": 24,
      "max": [
        1.0,
        1.0,
        1.0
      ],
      "min": [
        -1.0,
        -1.0,
        -1.0
      ],
      "type": "VEC3"
    },
    {
      "bufferView": 1,
      "byteOffset": 3632,
      "componentType": 5126,
      "count": 24,
      "max": [
        0.875,
        1.0
      ],
      "min": [
        0.125,
        0.0
      ],
      "type": "VEC2"
    },
    {
      "bufferView": 0,
      "byteOffset": 6360,
      "componentType": 5125,
      "count": 36,
      "type": "SCALAR"
    },
    {
      "bufferView": 2,
      "byteOffset": 11472,
      "componentType": 5126,
      "count": 65532,
      "max": [
        16.860572814941406,
        20.560283660888672,
        -0.7631608247756958
      ],
      "min": [
        -1.3047529458999634,
        -1.4187012910842896,
        -23.742578506469727
      ],
      "type": "VEC3"
    },
    {
      "bufferView": 2,
      "byteOffset": 797856,
      "componentType": 5126,
      "count": 65532,
      "max": [
        0.9997549057006836,
        0.9997618198394775,
        0.9998704195022583
      ],
      "min": [
        -0.9996168613433838,
        -0.9999976754188538,
        -0.9934139251708984
      ],
      "type": "VEC3"
    },
    {
      "bufferView": 1,
      "byteOffset": 3824,
      "componentType": 5126,
      "count": 65532,
      "max": [
        0.976632833480835,
        0.9851388931274414
      ],
      "min": [
        0.02906966209411621,
        0.027909329161047935
      ],
      "type": "VEC2"
    },
    {
      "bufferView": 0,
      "byteOffset": 6504,
      "componentType": 5125,
      "count": 98298,
      "type": "SCALAR"
    },
    {
      "bufferView": 2,
      "byteOffset": 1584240,
      "componentType": 5126,
      "count": 46324,
      "max": [
        16.61501693725586,
        20.704187393188477,
        -0.7631608247756958
      ],
      "min": [
        -1.2958332300186157,
        -1.4665281772613525,
        -23.758724212646484
      ],
      "type": "VEC3"
    },
    {
      "bufferView": 2,
      "byteOffset": 2140128,
      "componentType": 5126,
      "count": 46324,
      "max": [
        0.9997915625572205,
        0.9999629855155945,
        0.9993600249290466
      ],
      "min": [
        -0.9999408721923828,
        -0.9999794960021973,
        -0.9991104006767273
      ],
      "type": "VEC3"
    },
    {
      "bufferView": 1,
      "byteOffset": 528080,
      "componentType": 5126,
      "count": 46324,
      "max": [
        0.9836118221282959,
        0.9872702360153198
      ],
      "min": [
        0.02302318811416626,
        0.027897929772734642
      ],
      "type": "VEC2"
    },
    {
      "bufferView": 0,
      "byteOffset": 399696,
      "componentType": 5125,
      "count": 69486,
      "type": "SCALAR"
    },
    {
      "bufferView": 2,
      "byteOffset": 2696016,
      "componentType": 5126,
      "count": 24,
      "max": [
        0.5,
        0.4542912542819977,
        0.495164692401886
      ],
      "min": [
        -0.5,
        -0.40546944737434387,
        -0.49969226121902466
      ],
      "type": "VEC3"
    },
    {
      "bufferView": 2,
      "byteOffset": 2696304,
      "componentType": 5126,
      "count": 24,
      "max": [
        1.0,
        1.0,
        1.0
      ],
      "min": [
        -1.0,
        -1.0,
        -1.0
      ],
      "type": "VEC3"
    },
    {
      "bufferView": 1,
      "byteOffset": 898672,
      "componentType": 5126,
      "count": 24,
      "max": [
        0.875,
        1.0
      ],
      "min": [
        0.125,
        0.0
      ],
      "type": "VEC2"
    },
    {
      "bufferView": 0,
      "byteOffset": 677640,
      "componentType": 5125,
      "count": 36,
      "type": "SCALAR"
    }
  ],
  "asset": {
    "extras": {
      "author": "Poliko (https://sketchfab.com/Poliko)",
      "license": "CC-BY-4.0 (http://creativecommons.org/licenses/by/4.0/)",
      "source": "https://sketchfab.com/3d-models/hand-holding-phone-6d99aa43705c44bcadde799b9a617d1c",
      "title": "Hand holding phone"
    },
    "generator": "Sketchfab-12.66.0",
    "version": "2.0"
  },
  "bufferViews": [
    {
      "buffer": 0,
      "byteLength": 677784,
      "name": "floatBufferViews",
      "target": 34963
    },
    {
      "buffer": 0,
      "byteLength": 898864,
      "byteOffset": 677784,
      "byteStride": 8,
      "name": "floatBufferViews",
      "target": 34962
    },
    {
      "buffer": 0,
      "byteLength": 2696592,
      "byteOffset": 1576648,
      "byteStride": 12,
      "name": "floatBufferViews",
      "target": 34962
    }
  ],
  "buffers": [
    {
      "byteLength": 4273240,
      "uri": "scene.bin"
    }
  ],
  "materials": [
    {
      "doubleSided": true,
      "name": "phong2",
      "pbrMetallicRoughness": {
        "baseColorFactor": [
          0.0,
          0.0,
          0.0,
          1.0
        ],
        "metallicFactor": 0.0,
        "roughnessFactor": 0.8942628736559436
      }
    },
    {
      "doubleSided": true,
      "name": "manoparazetatratadaenzeta2aiFlat1",
      "pbrMetallicRoughness": {
        "baseColorFactor": [
          0.5,
          0.5,
          0.5,
          1.0
        ],
        "metallicFactor": 0.0,
        "roughnessFactor": 0.6
      }
    },
    {
      "doubleSided": true,
      "name": "aiStandardSurface2",
      "pbrMetallicRoughness": {
        "metallicFactor": 0.0,
        "roughnessFactor": 0.6
      }
    },
    {
      "doubleSided": true,
      "name": "lambert1",
      "pbrMetallicRoughness": {
        "metallicFactor": 0.0,
        "roughnessFactor": 0.6
      }
    }
  ],
  "meshes": [
    {
      "name": "pCube2_phong2_0",
      "primitives": [
        {
          "attributes": {
            "NORMAL": 1,
            "POSITION": 0,
            "TEXCOORD_0": 2
          },
          "indices": 3,
          "material": 0,
          "mode": 4
        }
      ]
    },
    {
      "name": "pCube19_manoparazetatratadaenzeta2:aiFlat1_0",
      "primitives": [
        {
          "attributes": {
            "NORMAL": 5,
            "POSITION": 4,
            "TEXCOORD_0": 6
          },
          "indices": 7,
          "material": 1,
          "mode": 4
        }
      ]
    },
    {
      "name": "manoparazetatratadaenzeta2:Group56172_aiStandardSurface2_0",
      "primitives": [
        {
          "attributes": {
            "NORMAL": 9,
            "POSITION": 8,
            "TEXCOORD_0": 10
          },
          "indices": 11,
          "material": 2,
          "mode": 4
        }
      ]
    },
    {
      "name": "manoparazetatratadaenzeta2:Group56172_aiStandardSurface2_0",
      "primitives": [
        {
          "attributes": {
            "NORMAL": 13,
            "POSITION": 12,
            "TEXCOORD_0": 14
          },
          "indices": 15,
          "material": 2,
          "mode": 4
        }
      ]
    },
    {
      "name": "manoparazetatratadaenzeta2:pCube19_lambert1_0",
      "primitives": [
        {
          "attributes": {
            "NORMAL": 17,
            "POSITION": 16,
            "TEXCOORD_0": 18
          },
          "indices": 19,
          "material": 3,
          "mode": 4
        }
      ]
    }
  ],
  "nodes": [
    {
      "children": [
        1
      ],
      "matrix": [
        1.0,
        0.0,
        0.0,
        0.0,
        0.0,
        2.220446049250313e-16,
        -1.0,
        0.0,
        0.0,
        1.0,
        2.220446049250313e-16,
        0.0,
        0.0,
        0.0,
        0.0,
        1.0
      ],
      "name": "Sketchfab_model"
    },
    {
      "children": [
        2
      ],
      "matrix": [
        1.0,
        0.0,
        0.0,
        0.0,
        0.0,
        0.0,
        1.0,
        0.0,
        0.0,
        -1.0,
        0.0,
        0.0,
        0.0,
        0.0,
        0.0,
        1.0
      ],
      "name": "a59abc0508db4ba6b4194dd561077889.fbx"
    },
    {
      "children": [
        3,
        5,
        7,
        10
      ],
      "name": "RootNode"
    },
    {
      "children": [
        4
      ],
      "matrix": [
        0.7333333492279053,
        0.0,
        0.0,
        0.0,
        0.0,
        5.755555629730225,
        0.0,
        0.0,
        0.0,
        0.0,
        11.719813346862793,
        0.0,
        2.0087482929229736,
        17.12293815612793,
        1.1839810609817505,
        1.0
      ],
      "name": "pCube2"
    },
    {
      "mesh": 0,
      "name": "pCube2_phong2_0"
    },
    {
      "children": [
        6
      ],
      "matrix": [
        0.11909940093755722,
        0.0,
        0.0,
        0.0,
        0.0,
        6.231317520141602,
        0.0,
        0.0,
        0.0,
        0.0,
        9.725119590759277,
        0.0,
        2.140254020690918,
        16.95589828491211,
        1.4425114393234253,
        1.0
      ],
      "name": "pCube19"
    },
    {
      "mesh": 1,
      "name": "pCube19_manoparazetatratadaenzeta2:aiFlat1_0"
    },
    {
      "children": [
        8,
        9
      ],
      "name": "manoparazetatratadaenzeta2:Group56172"
    },
    {
      "mesh": 2,
      "name": "manoparazetatratadaenzeta2:Group56172_aiStandardSurface2_0"
    },
    {
      "mesh": 3,
      "name": "manoparazetatratadaenzeta2:Group56172_aiStandardSurface2_0"
    },
    {
      "children": [
        11
      ],
      "matrix": [
        0.11909940093755722,
        0.0,
        0.0,
        0.0,
        0.0,
        6.231317520141602,
        0.0,
        0.0,
        0.0,
        0.0,
        9.725119590759277,
        0.0,
        2.157684087753296,
        16.95589828491211,
        1.4425114393234253,
        1.0
      ],
      "name": "manoparazetatratadaenzeta2:pCube19"
    },
    {
      "mesh": 4,
      "name": "manoparazetatratadaenzeta2:pCube19_lambert1_0"
    }
  ],
  "scene": 0,
  "scenes": [
    {
      "name": "Sketchfab_Scene",
      "nodes": [
        0
      ]
    }
  ]
}
